<svg width="97" height="44" viewBox="0 0 97 44" fill="none" xmlns="http://www.w3.org/2000/svg">
<path d="M37.612 14L37.598 6.86L34.056 12.81H33.412L29.87 6.902V14H28.526V4.2H29.674L33.762 11.088L37.794 4.2H38.942L38.956 14H37.612ZM44.5685 6.51C45.5951 6.51 46.3791 6.762 46.9205 7.266C47.4711 7.77 47.7465 8.52133 47.7465 9.52V14H46.4725V13.02C46.2485 13.3653 45.9265 13.6313 45.5065 13.818C45.0958 13.9953 44.6058 14.084 44.0365 14.084C43.2058 14.084 42.5385 13.8833 42.0345 13.482C41.5398 13.0807 41.2925 12.5533 41.2925 11.9C41.2925 11.2467 41.5305 10.724 42.0065 10.332C42.4825 9.93067 43.2385 9.73 44.2745 9.73H46.4025V9.464C46.4025 8.88533 46.2345 8.442 45.8985 8.134C45.5625 7.826 45.0678 7.672 44.4145 7.672C43.9758 7.672 43.5465 7.74667 43.1265 7.896C42.7065 8.036 42.3518 8.22733 42.0625 8.47L41.5025 7.462C41.8851 7.154 42.3425 6.92067 42.8745 6.762C43.4065 6.594 43.9711 6.51 44.5685 6.51ZM44.2605 13.048C44.7738 13.048 45.2171 12.936 45.5905 12.712C45.9638 12.4787 46.2345 12.152 46.4025 11.732V10.696H44.3305C43.1918 10.696 42.6225 11.0787 42.6225 11.844C42.6225 12.2173 42.7671 12.5113 43.0565 12.726C43.3458 12.9407 43.7471 13.048 44.2605 13.048ZM53.5406 14.084C52.7846 14.084 52.1079 13.9207 51.5106 13.594C50.9226 13.2673 50.4606 12.8193 50.1246 12.25C49.7886 11.6713 49.6206 11.018 49.6206 10.29C49.6206 9.562 49.7886 8.91333 50.1246 8.344C50.4606 7.76533 50.9226 7.31733 51.5106 7C52.1079 6.67333 52.7846 6.51 53.5406 6.51C54.2126 6.51 54.8099 6.64533 55.3326 6.916C55.8646 7.18667 56.2753 7.57867 56.5646 8.092L55.5426 8.75C55.3093 8.39533 55.0199 8.12933 54.6746 7.952C54.3293 7.77467 53.9466 7.686 53.5266 7.686C53.0413 7.686 52.6026 7.79333 52.2106 8.008C51.8279 8.22267 51.5246 8.53067 51.3006 8.932C51.0859 9.324 50.9786 9.77667 50.9786 10.29C50.9786 10.8127 51.0859 11.2747 51.3006 11.676C51.5246 12.068 51.8279 12.3713 52.2106 12.586C52.6026 12.8007 53.0413 12.908 53.5266 12.908C53.9466 12.908 54.3293 12.8193 54.6746 12.642C55.0199 12.4647 55.3093 12.1987 55.5426 11.844L56.5646 12.488C56.2753 13.0013 55.8646 13.398 55.3326 13.678C54.8099 13.9487 54.2126 14.084 53.5406 14.084ZM61.5693 14.084C60.8133 14.084 60.1366 13.9207 59.5393 13.594C58.9513 13.2673 58.4893 12.8193 58.1533 12.25C57.8173 11.6713 57.6493 11.018 57.6493 10.29C57.6493 9.562 57.8173 8.91333 58.1533 8.344C58.4893 7.76533 58.9513 7.31733 59.5393 7C60.1366 6.67333 60.8133 6.51 61.5693 6.51C62.2413 6.51 62.8386 6.64533 63.3613 6.916C63.8933 7.18667 64.3039 7.57867 64.5933 8.092L63.5713 8.75C63.3379 8.39533 63.0486 8.12933 62.7033 7.952C62.3579 7.77467 61.9753 7.686 61.5553 7.686C61.0699 7.686 60.6313 7.79333 60.2393 8.008C59.8566 8.22267 59.5533 8.53067 59.3293 8.932C59.1146 9.324 59.0073 9.77667 59.0073 10.29C59.0073 10.8127 59.1146 11.2747 59.3293 11.676C59.5533 12.068 59.8566 12.3713 60.2393 12.586C60.6313 12.8007 61.0699 12.908 61.5553 12.908C61.9753 12.908 62.3579 12.8193 62.7033 12.642C63.0486 12.4647 63.3379 12.1987 63.5713 11.844L64.5933 12.488C64.3039 13.0013 63.8933 13.398 63.3613 13.678C62.8386 13.9487 62.2413 14.084 61.5693 14.084ZM69.1193 6.51C70.146 6.51 70.93 6.762 71.4713 7.266C72.022 7.77 72.2973 8.52133 72.2973 9.52V14H71.0233V13.02C70.7993 13.3653 70.4773 13.6313 70.0573 13.818C69.6467 13.9953 69.1567 14.084 68.5873 14.084C67.7567 14.084 67.0893 13.8833 66.5853 13.482C66.0907 13.0807 65.8433 12.5533 65.8433 11.9C65.8433 11.2467 66.0813 10.724 66.5573 10.332C67.0333 9.93067 67.7893 9.73 68.8253 9.73H70.9533V9.464C70.9533 8.88533 70.7853 8.442 70.4493 8.134C70.1133 7.826 69.6187 7.672 68.9653 7.672C68.5267 7.672 68.0973 7.74667 67.6773 7.896C67.2573 8.036 66.9027 8.22733 66.6133 8.47L66.0533 7.462C66.436 7.154 66.8933 6.92067 67.4253 6.762C67.9573 6.594 68.522 6.51 69.1193 6.51ZM68.8113 13.048C69.3247 13.048 69.768 12.936 70.1413 12.712C70.5147 12.4787 70.7853 12.152 70.9533 11.732V10.696H68.8813C67.7427 10.696 67.1733 11.0787 67.1733 11.844C67.1733 12.2173 67.318 12.5113 67.6073 12.726C67.8967 12.9407 68.298 13.048 68.8113 13.048ZM75.1515 8.428C74.8901 8.428 74.6661 8.33933 74.4795 8.162C74.2928 7.97533 74.1995 7.742 74.1995 7.462C74.1995 7.19133 74.2928 6.96733 74.4795 6.79C74.6661 6.60333 74.8901 6.51 75.1515 6.51C75.4128 6.51 75.6321 6.59867 75.8095 6.776C75.9868 6.95333 76.0755 7.182 76.0755 7.462C76.0755 7.742 75.9821 7.97533 75.7955 8.162C75.6181 8.33933 75.4035 8.428 75.1515 8.428ZM75.1515 14.084C74.8901 14.084 74.6661 13.9953 74.4795 13.818C74.2928 13.6313 74.1995 13.398 74.1995 13.118C74.1995 12.8473 74.2928 12.6233 74.4795 12.446C74.6661 12.2593 74.8901 12.166 75.1515 12.166C75.4128 12.166 75.6321 12.2547 75.8095 12.432C75.9868 12.6093 76.0755 12.838 76.0755 13.118C76.0755 13.398 75.9821 13.6313 75.7955 13.818C75.6181 13.9953 75.4035 14.084 75.1515 14.084Z" fill="#8A8A8A"/>
<path d="M36.352 28.774H34.616V31H32.852V28.774H27.476V27.514L32.306 21.2H34.252L29.702 27.234H32.908V25.26H34.616V27.234H36.352V28.774ZM41.346 31.14C40.562 31.14 39.862 30.944 39.246 30.552C38.63 30.1507 38.1446 29.572 37.79 28.816C37.4353 28.0507 37.258 27.1453 37.258 26.1C37.258 25.0547 37.4353 24.154 37.79 23.398C38.1446 22.6327 38.63 22.054 39.246 21.662C39.862 21.2607 40.562 21.06 41.346 21.06C42.13 21.06 42.83 21.2607 43.446 21.662C44.0713 22.054 44.5613 22.6327 44.916 23.398C45.2706 24.154 45.448 25.0547 45.448 26.1C45.448 27.1453 45.2706 28.0507 44.916 28.816C44.5613 29.572 44.0713 30.1507 43.446 30.552C42.83 30.944 42.13 31.14 41.346 31.14ZM41.346 29.558C42.046 29.558 42.5966 29.2687 42.998 28.69C43.4086 28.1113 43.614 27.248 43.614 26.1C43.614 24.952 43.4086 24.0887 42.998 23.51C42.5966 22.9313 42.046 22.642 41.346 22.642C40.6553 22.642 40.1046 22.9313 39.694 23.51C39.2926 24.0887 39.092 24.952 39.092 26.1C39.092 27.248 39.2926 28.1113 39.694 28.69C40.1046 29.2687 40.6553 29.558 41.346 29.558ZM53.1179 25.008H49.1279V31H47.3779V23.524H53.1179V25.008ZM54.3663 31.098C54.0489 31.098 53.7783 30.9907 53.5543 30.776C53.3303 30.552 53.2183 30.272 53.2183 29.936C53.2183 29.5907 53.3256 29.3107 53.5403 29.096C53.7643 28.8813 54.0396 28.774 54.3663 28.774C54.6929 28.774 54.9636 28.8813 55.1783 29.096C55.4023 29.3107 55.5143 29.5907 55.5143 29.936C55.5143 30.272 55.4023 30.552 55.1783 30.776C54.9543 30.9907 54.6836 31.098 54.3663 31.098Z" fill="#337D5A"/>
<path d="M16.9232 22.1065C16.793 21.6621 14.6732 13.7264 14.3848 12.6464C14.0976 11.567 13.3466 11.2784 12.5007 11.2784C12.209 11.2784 11.084 11.2784 9.7431 11.2784V10.2811C14.872 9.80376 16.2399 6 16.2399 6H1.41987C1.41987 6 2.56685 10.018 8.05123 10.3031V11.2778C6.80345 11.2778 5.77595 11.2778 5.49913 11.2778C4.65317 11.2778 3.90281 11.5665 3.61469 12.6459C3.32681 13.7259 1.20726 21.6615 1.07682 22.106C0.914227 22.663 0.964768 23.3903 2.09823 23.3903C2.22323 23.3903 2.50667 23.3903 2.90764 23.3903V24H14.9533V23.3908C15.4235 23.3908 15.7624 23.3908 15.9004 23.3908C17.0353 23.3908 17.0858 22.6635 16.9232 22.1065ZM9.00016 12.3089C11.7772 12.3089 14.0272 14.5578 14.0272 17.3346C14.0272 20.1113 11.7772 22.3608 9.00016 22.3608C6.2242 22.3608 3.97415 20.1114 3.97415 17.3346C3.97415 14.5577 6.22415 12.3089 9.00016 12.3089Z" fill="#337D5A"/>
<path d="M6.11459 15.1225L5.59878 14.7553L5.44635 14.969L5.95474 15.3296C6.00197 15.257 6.06045 15.1923 6.11459 15.1225Z" fill="#337D5A"/>
<path d="M7.53315 13.9964L7.25193 13.4279L7.0163 13.5449L7.30299 14.122C7.3802 14.081 7.45325 14.0326 7.53315 13.9964Z" fill="#337D5A"/>
<path d="M5.34997 17.3346C5.34997 17.3049 5.35848 17.2781 5.35957 17.249H4.7196V17.511H5.36808C5.3659 17.4511 5.34997 17.3951 5.34997 17.3346Z" fill="#337D5A"/>
<path d="M12.9445 15.4109L12.8187 15.1818L12.1612 15.5416C12.203 15.6163 12.2475 15.6932 12.2859 15.7707L12.9445 15.4109Z" fill="#337D5A"/>
<path d="M11.418 13.7209L11.1927 13.5858L10.8285 14.1923C10.9038 14.2367 10.9845 14.2722 11.0581 14.3211L11.418 13.7209Z" fill="#337D5A"/>
<path d="M9.19651 13.7047V13.0312H8.9342V13.691C8.95619 13.691 8.97761 13.6849 8.99959 13.6849C9.06767 13.6849 9.13003 13.7011 9.19651 13.7047Z" fill="#337D5A"/>
<path d="M11.1158 21.216L10.7654 20.5096C10.6896 20.553 10.6144 20.5997 10.5352 20.636L10.8796 21.3325L11.1158 21.216Z" fill="#337D5A"/>
<path d="M12.6858 19.7911L12.0469 19.3374C11.9997 19.411 11.9403 19.4758 11.8876 19.5445L12.5331 20.0043L12.6858 19.7911Z" fill="#337D5A"/>
<path d="M12.6507 17.3346C12.6507 17.3945 12.6363 17.4511 12.6336 17.5104H13.4136V17.2484H12.6429C12.6424 17.2786 12.6507 17.3049 12.6507 17.3346Z" fill="#337D5A"/>
<path d="M8.9342 20.9782V21.7258H9.19651V20.9644C9.13003 20.9677 9.06767 20.9842 8.99959 20.9842C8.97761 20.9842 8.95619 20.9782 8.9342 20.9782Z" fill="#337D5A"/>
<path d="M5.78143 19.0198L5.18567 19.3439L5.31176 19.5736L5.9053 19.2506C5.86024 19.1753 5.82152 19.0979 5.78143 19.0198Z" fill="#337D5A"/>
<path d="M7.31154 20.552C7.23325 20.5107 7.15496 20.4712 7.08026 20.4261L6.71356 21.0359L6.93851 21.171L7.31154 20.552Z" fill="#337D5A"/>
<path d="M7.46124 19.89L7.66312 20.0043L8.92764 17.8889C8.97926 17.9004 9.02711 17.9202 9.08176 17.9202C9.52609 17.9202 9.88541 17.5604 9.88541 17.1171C9.88541 16.6732 9.52609 16.3135 9.08176 16.3135C8.639 16.3135 8.27893 16.6732 8.27893 17.1171C8.27893 17.3709 8.40393 17.5873 8.58794 17.7356L7.46124 19.89ZM9.08224 16.8874C9.21055 16.8874 9.31296 16.9908 9.31296 17.1171C9.31296 17.244 9.20998 17.3477 9.08224 17.3477C8.95511 17.3477 8.85317 17.244 8.85317 17.1171C8.85317 16.9907 8.95511 16.8874 9.08224 16.8874Z" fill="#337D5A"/>
</svg>
